# xmcd CD database file
#
# Track frame offsets:
#	150
#	40230
#	71977
#	106832
#	136652
#	171575
#	206387
#	235490
#
# Disc length: 3608 seconds
#
# Revision: 0
# Processed by: cddbd v1.5.2PL0 Copyright (c) Steve Scherf et al.
# Submitted via: CDex 1.51
#
DISCID=710e1608
DTITLE=Asche and Spencer - Calming Sea
DYEAR=1997
DGENRE=New Age
TTITLE0=Into The Infinite
TTITLE1=Floating
TTITLE2=The Endless Ocean
TTITLE3=Reflection
TTITLE4=Open Skies
TTITLE5=Hope Eternal
TTITLE6=Surrender
TTITLE7=Pacific Sunset
EXTD=YEAR: 1997
EXTT0=
EXTT1=
EXTT2=
EXTT3=
EXTT4=
EXTT5=
EXTT6=
EXTT7=
PLAYORDER=
